<svg width="1130" height="501" viewBox="0 0 1130 501" fill="none" xmlns="http://www.w3.org/2000/svg">
<mask id="mask0_235_70859" style="mask-type:alpha" maskUnits="userSpaceOnUse" x="12" y="58" width="1033" height="405">
<path d="M348.295 382.027L171.506 452.713L80.2403 390.798L12.5371 228.888L235.58 160.432L455.65 58.3752L553.075 175.005L772.474 185.923L866.682 89.8569L977.758 70.6209L1044.89 177.009L1019.41 332.608L835.806 462.178L792.629 458.598L737.5 394.877L520.562 401.976L348.295 382.027Z" fill="#D9D9D9"/>
</mask>
<g mask="url(#mask0_235_70859)">
</g>
<path d="M420.138 255.02C422.684 256.031 424.952 257.635 426.753 259.699C434.3 268.183 432.597 283.529 425.922 292.578C423.34 296.08 409.956 297.504 405.564 299.737C399.201 302.973 393.586 307.477 387.622 311.432C379.402 316.986 370.578 321.32 361.935 326.084C352.74 331.153 342.867 331.145 333.874 335.577C329.379 337.792 325.087 345.472 321.055 348.792C312.204 356.082 300.933 358.535 291.27 364.377C273.791 375.143 259.412 391.428 240.057 398.872C237.733 399.765 230.754 399.233 227.49 400.159C217.097 403.103 210.555 405.567 199.494 404.693C186.702 403.622 174.871 397.468 166.648 387.607C161.183 381.14 157.089 373.435 154.337 365.199C145.264 338.04 158.318 321.576 175.492 302.234C177.822 299.611 183.821 294.88 184.084 291.731C183.383 290.792 181.35 290.305 180.306 290.513C166.729 293.217 152.244 293.215 138.676 294.964C120.672 297.49 104.176 301.899 87.1154 292.735C77.3357 287.483 75.1212 272.777 80.6385 264.265C91.1635 248.028 122.372 263.756 137.158 264.27C148.109 264.65 157.239 260.797 167.869 261.079C183.821 263.141 190.12 275.538 207.991 265.063C219.38 258.388 229.673 250.289 240.541 242.599C249.767 236.071 261.714 228.993 270.197 221.813C277.234 215.344 283.112 207.015 290.805 201.267C298.595 195.833 307.311 189.238 315.416 184.524C328.602 176.856 337.38 171.817 346.324 159.057C353.939 148.194 365.141 135.864 377.008 129.666C383.423 126.315 396.624 123.49 403.828 121.146C405.008 120.817 412.244 121.675 414.004 121.141C417.871 119.97 422.699 117.063 426.436 116.314C432.641 115.071 440.022 115.747 445.416 119.238C450.755 122.705 454.506 128.142 455.849 134.365C458.999 149.253 448.341 157.626 442.301 170.136C441.194 171.672 439.611 172.336 438.74 174.107C430.087 191.686 415.132 230.969 389.03 214.735C380.42 209.379 378.537 200.554 381.365 191.012C386.541 173.549 405.06 171.352 415.639 158.575C416.823 157.126 418.482 154.113 419.504 152.427C421.346 149.389 423.704 146.641 422.977 142.95C421.33 139.849 417.312 138.845 413.983 137.532C402.506 144.037 398.83 152.649 389.231 162.103C378.977 173.245 364.484 181.171 354.025 191.69C343.201 202.578 334.771 216.759 322.481 226.558C318.417 229.798 313.59 234.239 309.053 236.672C298.097 242.548 287.961 248.29 278.842 256.908C275.34 260.194 272.012 262.242 268.843 266.239C290.183 273.205 293.728 262.651 313.648 258.571C324.224 256.405 329.307 259.276 339.237 260.574C342.344 260.981 352.211 257.547 356.715 256.972C367.816 253.603 409.592 250.89 420.138 255.02ZM216.998 372.96C217.952 371.541 220.606 367.583 221.723 366.579C228.279 360.685 242.299 353.443 250.866 350.91C260.429 347.877 275.093 341.689 283.597 336.283C290.033 332.191 295.621 326.637 303.171 323.132C310.622 319.674 317.611 321.117 324.584 317.154C329.9 314.134 332.128 308.923 336.864 304.508C341.91 299.803 351.37 295.929 356.081 291.051C356.491 290.627 356.089 289.781 355.908 289.153C345.266 282.843 328.743 289.53 317.806 288.629C302.615 287.378 290.719 283.041 275.247 283.254C265.479 284.198 266.214 286.265 257.61 289.759C252.867 291.696 245.969 290.024 241.396 291.845C236.27 293.887 232.013 299.322 227.29 302.365C214.35 310.633 200.182 320.682 192.793 334.523C190.797 338.261 189.644 352.314 190.303 356.531C192.672 371.708 202.127 379.974 216.998 372.96Z" fill="#FEFEFD"/>
<path d="M356.715 256.972C367.816 253.603 409.592 250.89 420.138 255.02C398.456 255.067 378.166 256.395 356.715 256.972Z" fill="#FEFEFD"/>
<path d="M948.436 108.031C954.764 107.132 960.833 107.144 965.874 111.386C986.577 128.805 968.727 147.311 954.402 160.816C948.845 166.456 943.632 172.119 937.698 177.395C927.361 186.588 915.482 194.295 907.558 205.833C904.152 210.795 900.801 219.239 896.786 223.227C889.383 230.569 879.573 235.234 872.92 243.828C867.501 250.529 859.978 256.679 854.898 263.726C851.485 268.453 849.423 274.368 845.855 279.027C835.377 292.251 822.668 304.9 814.775 319.888C813.298 322.685 813.035 333.955 815.735 335.881C820.685 334.333 835.224 310.717 843.974 307.12C852.429 303.643 869.292 293.599 872.228 284.951C874.708 277.65 866.981 273.58 872.583 261.496C876.087 258.867 884.37 254.975 886.794 252.476C892.79 246.291 893.443 243.747 901.43 238.98C914.547 231.154 928.561 225.096 941.663 217.331C949.95 211.729 956.382 206.01 965.117 200.954C983.646 190.235 999.32 204.273 993.706 223.482C991.149 232.246 979.919 234.477 972.725 238.505C968.188 241.047 957.1 247.263 955.292 252.622C959.51 256.32 969.171 252.751 979.945 265.231C985.592 271.657 988.411 280.086 987.77 288.616C986.731 302.312 973.019 316.085 965.207 327.058C962.379 331.029 955.275 335.836 951.314 338.964C945.478 343.567 937.557 346.55 932.254 351.943C927.159 357.377 927.255 368.814 920.963 372.967C912.88 378.302 907.281 376.496 899.289 383.642C884.915 396.482 868.079 407.013 853.23 419.328C849.204 422.666 845.185 427.182 841.908 431.258C831.709 444.507 827.95 456.832 808.937 455.258C805.584 454.176 803.417 453.024 800.278 451.338C790.902 446.301 790.371 428.396 795.837 420.314C803.1 409.561 818.699 409.823 828.91 401.932C840.014 393.354 850.105 382.952 860.725 373.719C869.199 366.509 878.806 360.266 887.606 353.534C890.56 351.271 893.836 344.659 897.922 342.346C901.869 340.11 904.713 339.79 909.047 338.916C912.799 336.544 913.607 332.933 915.876 329.375C922.742 318.605 931.675 307.437 942.431 300.383C945.999 298.047 953.939 294.651 954.537 290.299C954.248 289.132 954.002 288.587 953.013 287.836C946.013 282.516 938.115 282.523 929.911 284.51C923.307 286.109 915.788 292.548 909.934 295.925C899.412 301.998 889.377 306.94 880.047 314.963C871.904 321.997 867.491 331.287 858.694 337.618C847.534 345.646 836.12 346.746 824.103 351.07C817.858 353.317 818.129 358.45 808.12 359.882C789.42 362.557 790.27 346.251 784.027 341.393C782.128 341.307 781.811 343.105 780.308 344.6C770.551 354.238 758.023 358.917 744.763 361.701C724.481 365.96 701.807 357.234 697.629 335.099C694.137 316.613 707.761 308.139 717.486 295.546C722.973 288.439 727.711 277.566 733.189 270.182C743.797 256.259 767.957 245.503 782.99 236.801C790.394 232.513 795.953 222.759 807.157 221.397C822.799 219.494 834.366 224.417 846.566 233.164C851.197 228.713 858.31 219.833 861.487 214.395C863.799 210.964 865.764 205.091 868.2 201.968C877.684 189.812 887.197 188.707 895.469 173.996C905.919 155.411 920.681 138.439 932.833 120.937C937.135 114.741 940.684 109.818 948.436 108.031ZM739.554 331.016C747.622 328.221 754.458 320.892 761.917 316.286C785.832 301.512 802.23 279.089 821.18 259.086C821.707 258.529 821.455 257.502 821.347 256.86C820.144 256.05 820.435 256.303 818.691 256.417C811.468 258.942 801.032 258.966 795.508 261.442C786.87 265.312 777.004 276.112 770.7 283.208C758.862 298.17 736.552 307.535 736.993 329.497C737.015 330.527 738.627 331.175 739.554 331.016Z" fill="#FEFEFD"/>
<path d="M557.258 212.878C570.051 211.483 571.671 218.375 582.403 221.401C585.779 222.354 595.995 221.259 600.521 221.731C603.09 221.997 613.063 224.485 614.223 224.319C620.665 223.398 627.502 217.593 634.996 216.239C644.657 214.495 649.92 217.354 659.608 217.087C665.273 216.932 688.383 209.7 691.238 210.049C699.912 211.112 716.7 209.605 722.614 216.535C728.493 223.405 729.023 237.425 729.275 246.127C729.705 260.941 719.292 270.162 711.083 280.8C710.022 282.174 708.656 285.054 707.946 286.673C703.4 297.06 698.462 307.28 689.98 315.109C682.987 321.794 674.606 322.544 666.769 327.403C664.388 328.882 661.647 334.019 659.402 335.984C653.228 340.919 645.755 344.1 639.053 348.215C623.513 357.708 609.15 368.906 589.949 368.764C569.201 368.609 559.127 349.576 559.734 330.854C560.395 310.588 565.843 295.137 583.531 283.672C590.919 278.883 598.943 274.552 605.542 268.478C608.397 265.339 622.459 250.089 623.539 247.993C623.141 244.961 617.067 242.455 614.471 241.363C608.021 246.015 597.481 245.867 589.403 246.364C588.654 249.796 587.649 254.861 586.308 257.988C579.344 274.246 561.745 282.917 550.435 296.035C540.701 307.328 532.726 321.399 522.121 331.541C514.174 339.142 502.257 341.288 493.249 346.958C490.059 348.872 487.828 352.172 485.621 355.036C470.19 375.063 429.409 381.914 418.827 353.208C412.811 336.893 421.331 321.079 426.366 305.733C427.586 302.013 431.958 296.596 434.55 293.65C437.631 290.254 442.239 287.273 445.742 284.266C451.2 279.168 459.324 272.926 464.251 267.767C471.689 259.981 475.582 249.341 486.031 243.397C492.499 239.718 503.483 234.383 510.848 233.291C516.868 232.399 522.814 233.133 528.792 230.41C532.202 228.856 537.854 226.426 540.771 224.261C547.482 219.281 549.295 215.926 557.258 212.878ZM612.479 329.305C626.234 324.849 629.986 318.997 640.57 312.672C656.166 303.355 653.414 295.82 665.073 283.749C676.47 271.947 690.954 269.27 694.348 251.657C686.809 251.83 677.723 252.493 670.435 252.171C664.533 255.74 654.377 270 648.515 275.14C638.964 283.547 624.666 286.906 616.105 296.63C610.758 302.709 607.115 311.217 602.248 317.967C600.033 321.04 592.592 328.851 591.733 331.237L591.82 332.731C595.476 334.576 607.914 330.47 612.479 329.305ZM460.235 332.622C468.965 330.844 477.437 331.165 481.824 323.899C485.701 317.478 488.088 312.7 493.23 307.328C509.393 290.442 530.512 286.819 540.492 263.732C542.387 259.349 545.113 254.329 545.962 249.387C544.683 247.153 544.019 245.673 541.93 244.105L540.637 243.789C529.831 249.318 527.535 259.075 518.565 266.791C513.366 271.262 508.751 277.057 502.378 279.952C497.119 282.454 490.733 283.907 485.866 287.042L485.537 287.252C477.438 292.494 467.936 310.357 463.746 318.946C461.941 322.644 456.967 328.387 455.776 332.244L455.939 332.826C457.504 332.812 458.672 332.806 460.235 332.622Z" fill="#FEFEFD"/>
</svg>
